HIERARCHY
ROOT Hips
{
	OFFSET 0.000000 89.005402 0.000000
	CHANNELS 6 Xposition Yposition Zposition Xrotation Yrotation Zrotation
	JOINT Spine
	{
		OFFSET 0.116900 10.681000 0.373400
		CHANNELS 3 Xrotation Yrotation Zrotation
		JOINT Spine1
		{
			OFFSET 0.000000 13.840401 0.053500
			CHANNELS 3 Xrotation Yrotation Zrotation
			JOINT Spine2
			{
				OFFSET 0.000000 14.712700 -0.366200
				CHANNELS 3 Xrotation Yrotation Zrotation
				JOINT Neck
				{
					OFFSET 0.000000 35.415497 -3.314200
					CHANNELS 3 Xrotation Yrotation Zrotation
					JOINT Head
					{
						OFFSET 0.000000 16.899200 1.218300
						CHANNELS 3 Xrotation Yrotation Zrotation
						JOINT HeadTop_End
						{
							OFFSET 0.000000 22.206207 2.192500
							CHANNELS 3 Xrotation Yrotation Zrotation
							End Site
							{
								OFFSET 0.000000 22.314178 0.000000
							}
						}
					}
				}
				JOINT LeftShoulder
				{
					OFFSET 12.896400 26.716293 -4.548400
					CHANNELS 3 Xrotation Yrotation Zrotation
					JOINT LeftArm
					{
						OFFSET 19.027000 -4.857010 -1.718400
						CHANNELS 3 Xrotation Yrotation Zrotation
						JOINT LeftForeArm
						{
							OFFSET 24.179897 0.000000 0.000000
							CHANNELS 3 Xrotation Yrotation Zrotation
							JOINT LeftHand
							{
								OFFSET 27.156403 0.000000 0.000000
								CHANNELS 3 Xrotation Yrotation Zrotation
								JOINT LeftHandIndex1
								{
									OFFSET 16.441200 0.000000 0.000000
									CHANNELS 3 Xrotation Yrotation Zrotation
									JOINT LeftHandIndex2
									{
										OFFSET 4.821899 0.000000 0.000000
										CHANNELS 3 Xrotation Yrotation Zrotation
										JOINT LeftHandIndex3
										{
											OFFSET 6.386497 0.000000 0.000000
											CHANNELS 3 Xrotation Yrotation Zrotation
											JOINT LeftHandIndex4
											{
												OFFSET 5.188988 0.000000 0.000000
												CHANNELS 3 Xrotation Yrotation Zrotation
												End Site
												{
													OFFSET -0.178703 5.185913 0.000177
												}
											}
										}
									}
								}
								JOINT LeftHandThumb1
								{
									OFFSET 6.534897 -5.032593 5.900300
									CHANNELS 3 Xrotation Yrotation Zrotation
									JOINT LeftHandThumb2
									{
										OFFSET 3.818176 -2.204422 2.204423
										CHANNELS 3 Xrotation Yrotation Zrotation
										JOINT LeftHandThumb3
										{
											OFFSET 3.252098 -1.877594 1.877601
											CHANNELS 3 Xrotation Yrotation Zrotation
											JOINT LeftHandThumb4
											{
												OFFSET 5.251778 -3.032120 3.032117
												CHANNELS 3 Xrotation Yrotation Zrotation
												End Site
												{
													OFFSET 0.000023 6.780014 0.000000
												}
											}
										}
									}
								}
							}
						}
					}
				}
				JOINT RightShoulder
				{
					OFFSET -12.896300 26.716293 -4.548400
					CHANNELS 3 Xrotation Yrotation Zrotation
					JOINT RightArm
					{
						OFFSET -19.027000 -4.857010 -1.718400
						CHANNELS 3 Xrotation Yrotation Zrotation
						JOINT RightForeArm
						{
							OFFSET -24.179897 0.000000 0.000000
							CHANNELS 3 Xrotation Yrotation Zrotation
							JOINT RightHand
							{
								OFFSET -27.156403 0.000000 0.000000
								CHANNELS 3 Xrotation Yrotation Zrotation
								JOINT RightHandThumb1
								{
									OFFSET -6.591202 -4.852203 5.988100
									CHANNELS 3 Xrotation Yrotation Zrotation
									JOINT RightHandThumb2
									{
										OFFSET -3.818176 -2.204422 2.204423
										CHANNELS 3 Xrotation Yrotation Zrotation
										JOINT RightHandThumb3
										{
											OFFSET -3.252098 -1.877594 1.877601
											CHANNELS 3 Xrotation Yrotation Zrotation
											JOINT RightHandThumb4
											{
												OFFSET -5.251778 -3.032120 3.032117
												CHANNELS 3 Xrotation Yrotation Zrotation
												End Site
												{
													OFFSET -0.000023 6.780014 0.000000
												}
											}
										}
									}
								}
								JOINT RightHandIndex1
								{
									OFFSET -16.029404 0.000000 0.000000
									CHANNELS 3 Xrotation Yrotation Zrotation
									JOINT RightHandIndex2
									{
										OFFSET -5.213303 0.000000 0.000000
										CHANNELS 3 Xrotation Yrotation Zrotation
										JOINT RightHandIndex3
										{
											OFFSET -6.386528 0.000000 0.000000
											CHANNELS 3 Xrotation Yrotation Zrotation
											JOINT RightHandIndex4
											{
												OFFSET -5.189026 0.000000 0.000000
												CHANNELS 3 Xrotation Yrotation Zrotation
												End Site
												{
													OFFSET 0.236702 5.183624 0.001972
												}
											}
										}
									}
								}
							}
						}
					}
				}
			}
		}
	}
	JOINT LeftUpLeg
	{
		OFFSET 14.073000 -7.904099 -1.463000
		CHANNELS 3 Xrotation Yrotation Zrotation
		JOINT LeftLeg
		{
			OFFSET -0.109806 -34.073280 4.093200
			CHANNELS 3 Xrotation Yrotation Zrotation
			JOINT LeftFoot
			{
				OFFSET 0.109806 -29.899420 -6.319000
				CHANNELS 3 Xrotation Yrotation Zrotation
				JOINT LeftToeBase
				{
					OFFSET 1.551100 -14.988700 20.535801
					CHANNELS 3 Xrotation Yrotation Zrotation
					JOINT LeftToe_End
					{
						OFFSET 0.221200 0.570800 13.248301
						CHANNELS 3 Xrotation Yrotation Zrotation
						End Site
						{
							OFFSET 0.000000 13.262435 0.000000
						}
					}
				}
			}
		}
	}
	JOINT RightUpLeg
	{
		OFFSET -13.839300 -7.904099 -1.463000
		CHANNELS 3 Xrotation Yrotation Zrotation
		JOINT RightLeg
		{
			OFFSET 0.109694 -34.073219 4.093300
			CHANNELS 3 Xrotation Yrotation Zrotation
			JOINT RightFoot
			{
				OFFSET -0.109694 -29.899384 -6.319200
				CHANNELS 3 Xrotation Yrotation Zrotation
				JOINT RightToeBase
				{
					OFFSET -1.551100 -14.988700 20.535801
					CHANNELS 3 Xrotation Yrotation Zrotation
					JOINT RightToe_End
					{
						OFFSET -0.221200 0.570900 13.248299
						CHANNELS 3 Xrotation Yrotation Zrotation
						End Site
						{
							OFFSET 0.000000 13.262440 0.000000
						}
					}
				}
			}
		}
	}
}
MOTION
Frames: 4
Frame Time: 0.033333
-0.590742 79.533134 0.401789 -3.689801 -40.498510 -2.483347 5.504790 3.670289 -1.672321 11.120784 7.065587 -3.436717 11.120787 7.065601 -3.436718 -2.685617 1.888917 -1.085059 -6.667778 21.953123 -1.229788 -0.000000 -0.000000 -0.000000 1.230152 1.695042 -7.128257 -13.684236 4.927885 -63.796870 9.919520 -53.118012 9.410875 17.244455 -1.349376 18.889544 1.331738 -7.349785 3.050228 0.018071 0.731900 -16.988656 0.000004 0.000003 -0.000001 0.000000 0.000001 -0.000001 9.325819 4.736693 -5.621316 -2.708893 1.610967 -0.866747 0.000009 0.000012 0.000005 -0.000003 0.000002 0.000001 0.740874 11.042383 12.799288 4.637231 -28.035903 60.576750 -4.218644 51.144077 6.439050 10.306859 18.412744 7.178795 3.300735 5.296296 -1.627410 7.197324 -24.445792 -5.988834 -0.000001 0.000000 0.000009 0.000000 0.000000 -0.000001 -0.773384 -0.508074 1.246104 -0.066773 -0.931263 18.892812 -0.000002 -0.000001 0.000006 0.000000 -0.000001 -0.000000 -31.421992 2.095590 12.901850 35.800228 -13.682454 1.231821 -3.087771 0.959840 -10.366670 -2.543829 -3.382725 0.713859 -0.000000 0.000002 0.000000 1.352894 -7.914432 -14.537942 35.054833 -16.676882 -0.753713 -24.674159 -7.588220 23.246621 -3.312761 -0.026294 1.120724 -0.000000 0.000001 0.000000 
-0.498412 79.765564 0.507691 -4.270861 -41.803807 -3.094062 5.533622 3.785965 -1.366512 11.163534 7.341828 -2.827871 11.163526 7.341836 -2.827872 -3.491143 1.509305 -0.709783 -6.364050 22.113096 -1.765541 0.000000 0.000000 0.000000 1.274012 1.414485 -7.537942 -13.949244 4.754399 -64.443327 8.501185 -51.703436 8.086063 16.423294 -0.167507 17.848871 0.521780 -7.251065 1.091135 0.044607 0.817935 -16.246457 0.000005 0.000001 0.000004 -0.000002 0.000002 -0.000002 9.163592 4.814109 -5.499024 -1.770153 0.890110 -0.013833 0.000010 0.000010 0.000010 -0.000002 0.000002 -0.000001 0.853049 11.390404 12.547852 4.564821 -27.544247 60.430208 -4.761673 49.531890 5.885709 8.336575 15.507576 9.613335 -0.339080 3.259838 -0.770169 8.062360 -22.799134 -4.371475 -0.000002 0.000000 0.000005 -0.000000 0.000000 -0.000001 -0.889054 -0.750242 2.565017 -0.019976 -0.966182 18.590317 -0.000002 -0.000006 0.000005 0.000000 -0.000002 -0.000001 -30.497406 3.173203 13.449997 35.680574 -13.513470 1.428107 -3.673913 1.002023 -10.043176 -2.319093 -3.216979 0.802957 0.000000 -0.000001 -0.000000 0.933995 -9.909016 -15.280277 34.232235 -13.407546 -0.720915 -24.547271 -6.745777 21.798808 -3.351409 -0.277309 1.217102 0.000000 0.000002 0.000000 
-0.511011 79.911301 0.522450 -5.117373 -42.648012 -3.642974 5.662655 4.063490 -1.294990 11.427262 7.905104 -2.715773 11.427253 7.905099 -2.715772 -3.978228 0.776043 -1.222675 -6.819195 21.330124 -0.344170 -0.000000 -0.000000 0.000000 1.294228 1.534629 -7.497035 -13.876725 2.944784 -63.787820 9.948318 -49.266967 6.606562 16.247955 0.215371 17.663675 -0.495080 -7.029956 -2.375455 0.035200 0.787449 -16.509696 0.000006 0.000000 -0.000001 0.000003 -0.000000 -0.000002 9.163602 4.814101 -5.499017 -1.173114 0.559761 0.091749 0.000009 0.000007 0.000008 -0.000000 0.000001 -0.000004 1.082053 11.283979 11.986674 4.030925 -26.472364 60.074376 -5.826640 47.403436 7.211185 6.204441 12.831648 10.669415 -4.562093 -0.764754 -0.314713 7.851149 -21.014530 -3.675154 -0.000000 0.000001 0.000005 0.000001 -0.000000 -0.000001 -1.020429 -1.066506 3.785213 0.039377 -1.017225 18.073953 -0.000002 -0.000002 0.000005 0.000000 0.000001 0.000000 -29.558784 4.170385 14.200099 35.327880 -13.792602 0.800511 -3.808604 0.948201 -9.605908 -2.323539 -3.217120 0.805025 0.000000 -0.000001 -0.000000 1.152672 -11.644623 -16.211261 33.228020 -10.572329 -0.239210 -24.399562 -6.322662 20.985287 -2.875649 -0.341281 0.684153 0.000000 0.000000 -0.000000 
-0.607983 79.984344 0.469651 -6.088554 -43.050515 -3.827502 5.849315 4.641344 -1.435613 11.836537 9.037610 -3.083969 11.836538 9.037615 -3.083970 -4.303102 -1.272938 0.206304 -6.271892 20.437789 -0.377159 0.000000 -0.000000 -0.000000 1.392464 -0.696060 -7.877843 -14.260072 2.394308 -63.277161 9.865107 -47.524992 5.927996 16.172855 0.915265 18.795463 -0.902021 -6.980965 -3.808426 0.038460 0.798047 -16.418487 0.000004 -0.000000 0.000001 -0.000002 -0.000001 0.000000 9.163599 4.814093 -5.499019 -0.335357 0.032568 0.783692 0.000010 0.000007 0.000006 -0.000001 -0.000004 0.000004 1.410928 9.461508 9.792759 1.220034 -24.270763 60.532886 -6.660719 41.858408 8.043799 6.225269 12.322347 11.673387 -8.895837 -4.903136 -0.383719 7.904815 -19.192485 -2.856843 -0.000002 -0.000001 0.000006 0.000003 -0.000000 -0.000000 -1.085501 -1.215487 4.525246 0.142127 -1.115548 16.942631 -0.000001 -0.000002 0.000005 0.000000 -0.000000 0.000000 -28.485692 5.182472 14.578129 34.635186 -14.334006 -0.205310 -3.671485 0.861925 -8.986311 -2.323537 -3.217105 0.805023 0.000000 -0.000002 0.000000 1.415620 -14.234533 -17.388678 32.174521 -7.617695 -0.167228 -24.801561 -6.085365 20.111905 -1.784982 -0.356702 0.333179 -0.000000 0.000001 0.000000 
